<?xml version="1.0" standalone="no"?>
<!DOCTYPE svg PUBLIC "-//W3C//DTD SVG 20010904//EN"
 "http://www.w3.org/TR/2001/REC-SVG-20010904/DTD/svg10.dtd">
<svg version="1.0" xmlns="http://www.w3.org/2000/svg"
 width="307.000000pt" height="307.000000pt" viewBox="0 0 307.000000 307.000000"
 preserveAspectRatio="xMidYMid meet">
<metadata>
Created by potrace 1.14, written by Peter Selinger 2001-2017
</metadata>
<g transform="translate(0.000000,307.000000) scale(0.100000,-0.100000)"
fill="#000000" stroke="none">
<path d="M1528 3066 c-1 -2 -39 -6 -83 -10 -251 -18 -498 -183 -630 -419 -74
-133 -97 -244 -99 -462 l-1 -160 -68 -3 c-112 -4 -189 -59 -211 -149 -9 -35
-12 -269 -11 -878 l1 -830 22 -42 c25 -47 70 -85 122 -101 49 -16 1871 -15
1920 0 53 16 87 44 117 96 l28 47 0 834 c0 602 -3 847 -12 880 -8 34 -23 57
-57 88 -48 43 -89 56 -173 55 -38 -1 -43 1 -44 21 -1 12 -2 85 -4 162 -3 163
-16 241 -56 347 -107 277 -383 489 -667 514 -37 3 -72 7 -79 9 -6 2 -13 2 -15
1z m171 -210 c194 -56 355 -203 424 -386 29 -76 43 -179 42 -320 l0 -135 -635
0 -635 0 1 135 c0 167 6 217 34 300 64 190 218 338 421 404 100 33 239 34 348
2z"/>
</g>
</svg>
