<svg id="visual" viewBox="0 0 900 600" width="900" height="600" xmlns="http://www.w3.org/2000/svg" xmlns:xlink="http://www.w3.org/1999/xlink" version="1.1"><rect x="0" y="0" width="900" height="600" fill="#1F2937"></rect><g transform="translate(426.79136098886886 313.2754958323116)"><path d="M187.2 -235.9C230.9 -225.8 246.7 -155.6 270.3 -86.9C293.9 -18.2 325.3 48.8 309.8 102C294.4 155.2 232.1 194.5 172.7 190.8C113.2 187.1 56.6 140.4 -4.1 146.1C-64.9 151.8 -129.7 209.8 -180.6 210.7C-231.5 211.6 -268.4 155.4 -267.5 100.5C-266.6 45.6 -227.9 -7.9 -205.1 -63C-182.2 -118.1 -175.2 -174.8 -143.6 -188.8C-112.1 -202.9 -56 -174.5 7.8 -185.2C71.7 -196 143.4 -246.1 187.2 -235.9" fill="#F2BB05"></path></g></svg>