<svg id="visual" viewBox="0 0 900 600" width="900" height="600" xmlns="http://www.w3.org/2000/svg" xmlns:xlink="http://www.w3.org/1999/xlink" version="1.1"><rect x="0" y="0" width="900" height="600" fill="#1F2937"></rect><g transform="translate(485.04635818334623 240.07459046481978)"><path d="M188.5 -213C230 -189.8 239.6 -116.9 227.2 -59C214.8 -1.2 180.5 41.6 164.6 119.4C148.7 197.2 151.3 310 112.4 335.9C73.5 361.8 -6.8 300.7 -95.9 266.8C-184.9 232.9 -282.5 226.2 -299.5 180.7C-316.5 135.2 -252.8 50.9 -219.1 -21C-185.4 -93 -181.7 -152.6 -150.2 -177.5C-118.7 -202.5 -59.4 -192.7 7.1 -201.2C73.5 -209.6 147 -236.2 188.5 -213" fill="#F2BB05"></path></g></svg>