<svg id="visual" viewBox="0 0 900 600" width="900" height="600" xmlns="http://www.w3.org/2000/svg" xmlns:xlink="http://www.w3.org/1999/xlink" version="1.1"><rect x="0" y="0" width="900" height="600" fill="#1F2937"></rect><g transform="translate(462.21319376945206 307.9806387330466)"><path d="M106.3 -143.4C153.9 -111.8 219.6 -102.3 234.2 -72.5C248.9 -42.7 212.4 7.2 180.6 44.4C148.8 81.5 121.7 105.9 92.4 135.7C63.1 165.5 31.5 200.8 -11.9 217.1C-55.3 233.4 -110.5 230.8 -156.6 206.4C-202.8 182.1 -239.8 136 -254.5 84.2C-269.1 32.4 -261.5 -25 -238.9 -72.4C-216.3 -119.7 -178.7 -156.9 -136.4 -190.2C-94 -223.4 -47 -252.7 -8.8 -240.6C29.4 -228.5 58.8 -174.9 106.3 -143.4" fill="#799CFE"></path></g></svg>